<?xml version="1.0" standalone="no"?>
<!DOCTYPE svg PUBLIC "-//W3C//DTD SVG 20010904//EN"
 "http://www.w3.org/TR/2001/REC-SVG-20010904/DTD/svg10.dtd">
<svg version="1.0" xmlns="http://www.w3.org/2000/svg"
 width="1102.000000pt" height="1102.000000pt" viewBox="0 0 1102.000000 1102.000000"
 preserveAspectRatio="xMidYMid meet">
<metadata>
Created by potrace 1.11, written by Peter Selinger 2001-2013
</metadata>
<g transform="translate(0.000000,1102.000000) scale(0.100000,-0.100000)"
fill="#000000" stroke="none">
<path d="M7948 9635 c-2 -1 -57 -5 -123 -9 -66 -3 -136 -8 -155 -11 -19 -2
-57 -7 -85 -11 -27 -3 -59 -8 -70 -10 -11 -2 -47 -9 -80 -15 -94 -16 -291 -68
-390 -101 -191 -64 -453 -185 -503 -231 -59 -55 -79 -148 -48 -222 35 -82 90
-118 181 -118 53 -1 74 6 190 62 208 101 478 192 641 216 21 4 46 8 54 11 8 2
36 6 62 9 25 3 57 8 69 10 89 18 426 24 559 11 398 -38 668 -110 965 -258 260
-130 495 -310 701 -538 52 -58 168 -216 222 -303 53 -84 154 -282 167 -327 1
-3 9 -22 18 -43 55 -125 131 -424 152 -592 21 -166 25 -360 12 -500 -30 -318
-152 -637 -371 -963 -69 -103 -262 -362 -285 -382 -4 -3 -40 -45 -81 -95 -41
-49 -82 -97 -90 -105 -8 -9 -37 -42 -65 -74 -27 -32 -59 -68 -70 -80 -36 -40
-253 -290 -340 -391 -87 -101 -218 -267 -255 -321 -8 -13 -39 -57 -68 -99 -92
-132 -167 -307 -187 -435 -3 -25 -9 -61 -12 -80 -3 -19 -9 -43 -14 -52 -8 -15
-89 -45 -144 -53 -11 -2 -54 -10 -95 -18 -132 -27 -246 -37 -405 -37 -103 0
-133 2 -244 16 -78 9 -205 35 -274 55 -78 23 -79 24 -102 149 -8 47 -17 94
-19 105 -9 44 -60 174 -92 235 -31 60 -218 317 -306 421 -20 24 -74 89 -120
144 -45 55 -97 116 -114 135 -17 19 -86 98 -154 175 -67 77 -146 167 -175 200
-145 166 -333 399 -391 485 -229 339 -345 579 -403 830 -32 143 -45 257 -45
415 0 104 12 293 18 305 2 3 6 28 10 57 3 29 10 74 16 100 5 26 12 59 14 73
31 188 142 477 264 688 55 95 55 95 80 129 106 148 16 336 -158 329 -30 -1
-67 -7 -81 -13 -77 -33 -259 -338 -368 -616 -53 -137 -117 -356 -136 -467 -3
-19 -8 -42 -10 -50 -2 -8 -6 -33 -10 -55 -3 -22 -8 -51 -10 -65 -16 -92 -29
-284 -29 -420 0 -109 11 -298 19 -310 1 -3 6 -27 9 -55 4 -27 12 -70 18 -95 5
-25 12 -58 15 -73 4 -29 56 -193 72 -232 5 -11 23 -56 41 -100 158 -381 382
-696 966 -1355 101 -114 190 -217 263 -305 46 -55 92 -111 104 -125 53 -62
206 -271 239 -325 46 -76 74 -170 83 -271 3 -43 8 -95 10 -114 2 -19 7 -77 10
-127 l6 -93 -1030 0 -1030 0 -23 33 c-48 65 -64 119 -67 217 -4 171 60 273
196 313 63 19 193 15 243 -6 40 -18 100 -68 100 -85 0 -7 4 -12 8 -12 22 0 60
-154 61 -252 l1 -38 269 0 268 0 -3 90 c-4 109 -9 154 -24 211 -41 161 -135
299 -260 380 -160 104 -318 140 -595 135 -145 -3 -184 -7 -268 -29 -309 -82
-490 -274 -542 -577 -11 -59 -14 -295 -5 -334 6 -26 5 -39 -4 -42 -6 -2 -129
-3 -272 -2 l-261 3 44 105 c25 58 112 263 195 455 82 193 152 356 155 363 4
10 -57 12 -298 10 l-303 -3 -28 -75 c-15 -41 -86 -239 -158 -440 -72 -201
-135 -374 -140 -385 -5 -11 -18 -47 -30 -79 -12 -33 -24 -64 -27 -69 -3 -5
-20 35 -39 89 -93 279 -325 958 -328 961 -2 2 -143 2 -314 1 l-310 -3 69 -165
c39 -91 77 -178 84 -195 7 -16 54 -127 104 -245 51 -118 96 -224 101 -235 5
-11 87 -200 181 -420 l170 -400 1 -542 1 -543 274 0 275 0 19 -24 c10 -13 38
-33 61 -45 l43 -21 3471 0 3471 0 44 23 c24 13 58 43 74 66 l30 43 3 794 c2
538 -1 808 -8 835 -14 49 -79 115 -128 129 -24 6 -300 10 -775 10 l-738 0 5
48 c3 26 8 90 11 142 19 283 52 364 270 646 80 105 352 429 410 490 11 11 31
34 45 50 46 53 235 269 240 274 14 14 200 240 225 275 17 22 36 46 43 54 22
23 175 243 231 331 174 275 319 638 357 887 3 21 7 49 10 63 24 132 24 533 0
660 -3 14 -10 61 -16 105 -14 97 -54 275 -82 370 -12 39 -22 72 -23 75 -13 61
-114 306 -173 420 -140 266 -263 433 -486 655 -110 110 -159 155 -251 228
-333 266 -816 482 -1235 552 -19 3 -60 10 -90 15 -30 5 -82 12 -115 15 -33 3
-82 8 -110 11 -56 5 -342 13 -347 9z"/>
<path d="M4121 7338 c-5 -13 -23 -61 -41 -108 -18 -47 -43 -114 -57 -150 -14
-36 -34 -87 -44 -115 -10 -27 -27 -74 -38 -102 l-21 -53 184 0 183 0 43 63
c24 34 81 118 128 187 47 69 109 159 137 200 28 41 55 81 59 88 6 9 -49 12
-259 12 l-265 0 -9 -22z"/>
<path d="M577 5907 c1 -738 2 -1357 2 -1375 l1 -32 278 2 277 3 0 1373 0 1372
-280 0 -280 0 2 -1343z"/>
<path d="M2575 6819 c0 -237 -3 -433 -6 -435 -4 -2 -15 8 -24 22 -35 54 -127
134 -188 163 -79 39 -100 43 -222 47 -354 11 -557 -201 -621 -648 -2 -16 -6
-43 -9 -60 -17 -118 -23 -451 -11 -628 8 -105 12 -139 42 -300 2 -14 16 -61
30 -105 64 -198 172 -319 340 -382 56 -21 91 -27 187 -29 139 -5 220 11 309
58 58 31 149 119 171 166 19 41 24 23 24 -80 l-1 -103 256 -3 256 -2 0 1375 0
1375 -266 0 -267 0 0 -431z m-157 -640 c55 -32 100 -102 116 -182 19 -93 25
-136 32 -222 8 -97 8 -405 0 -495 -8 -98 -35 -229 -57 -281 -25 -58 -72 -104
-125 -122 -49 -18 -145 -14 -196 7 -72 31 -123 125 -143 266 -5 30 -10 64 -12
75 -8 43 -10 514 -3 585 28 253 73 348 185 388 47 17 158 6 203 -19z"/>
<path d="M3970 6600 c-179 -38 -308 -115 -407 -245 -77 -101 -140 -271 -159
-430 0 -5 -4 -30 -8 -55 -23 -151 -21 -540 5 -745 47 -372 236 -592 559 -648
124 -22 336 -20 451 3 312 65 482 278 515 648 l7 72 -240 0 -239 0 -16 -85
c-17 -92 -63 -200 -98 -233 -78 -72 -222 -79 -296 -14 -45 40 -70 80 -93 150
-27 85 -36 154 -36 302 l0 125 523 3 c407 2 522 5 523 15 6 71 -5 388 -15 442
-2 11 -7 47 -11 80 -16 135 -78 297 -151 396 -70 96 -198 178 -334 215 -97 26
-366 28 -480 4z m327 -364 c49 -27 73 -53 98 -109 30 -65 44 -132 52 -259 l6
-98 -272 0 -272 0 5 98 c3 53 7 104 9 112 2 8 7 31 12 50 23 102 91 190 166
216 45 15 160 9 196 -10z"/>
<path d="M955 4234 c-362 -64 -576 -278 -622 -624 -13 -94 -7 -309 11 -389 60
-281 262 -456 696 -606 383 -132 494 -236 491 -463 0 -90 -3 -107 -29 -164
-77 -176 -357 -234 -534 -111 -89 61 -127 167 -128 363 l0 75 -278 0 -277 0
-1 -100 c-1 -298 86 -515 267 -659 34 -26 154 -81 220 -100 116 -34 220 -44
414 -42 105 2 199 6 210 8 11 3 40 9 65 13 64 11 166 42 228 71 29 13 55 24
58 24 11 0 121 80 160 117 139 131 206 326 206 598 -1 227 -47 364 -164 486
-67 70 -166 143 -257 188 -31 16 -179 81 -330 146 -366 159 -416 193 -461 314
-26 72 -23 237 6 301 48 105 137 153 284 154 81 0 102 -3 140 -23 25 -13 55
-35 68 -48 54 -58 90 -167 91 -280 l1 -53 269 0 268 0 -3 93 c-5 172 -32 281
-98 388 -115 188 -264 279 -531 324 -103 17 -338 17 -440 -1z"/>
</g>
</svg>
